<?xml version="1.0" standalone="no"?>
<!DOCTYPE svg PUBLIC "-//W3C//DTD SVG 20010904//EN"
 "http://www.w3.org/TR/2001/REC-SVG-20010904/DTD/svg10.dtd">
<svg version="1.0" xmlns="http://www.w3.org/2000/svg"
 width="729.000000pt" height="729.000000pt" viewBox="0 0 729.000000 729.000000"
 preserveAspectRatio="xMidYMid meet">
<metadata>
Created by potrace 1.14, written by Peter Selinger 2001-2017
</metadata>
<g transform="translate(0.000000,729.000000) scale(0.100000,-0.100000)"
fill="#000000" stroke="none">
<path d="M3338 6835 c-2 -2 -38 -6 -81 -9 -42 -3 -96 -10 -120 -15 -23 -6 -57
-12 -75 -16 -104 -18 -342 -75 -423 -101 -25 -8 -54 -16 -65 -19 -70 -14 -314
-106 -454 -170 -519 -236 -879 -566 -1106 -1015 -97 -193 -188 -486 -219 -710
-3 -25 -8 -56 -10 -70 -14 -101 -22 -165 -30 -265 -3 -33 -7 -84 -10 -112 -3
-29 -7 -79 -10 -110 -18 -199 -34 -276 -93 -458 -63 -198 -203 -513 -285 -642
-13 -21 -45 -75 -72 -120 -26 -46 -51 -86 -56 -89 -21 -13 -6 -33 38 -52 27
-11 115 -44 198 -72 147 -51 193 -74 227 -115 15 -18 52 -121 63 -176 18 -87
44 -274 51 -368 6 -70 5 -83 -7 -76 -12 7 -12 6 0 -9 8 -9 20 -52 27 -94 17
-111 39 -184 83 -276 83 -175 200 -281 331 -301 134 -20 350 -20 592 0 46 4
99 9 118 10 75 6 158 16 227 26 112 16 200 -10 300 -89 143 -114 225 -311 248
-597 2 -16 3 -32 4 -35 0 -3 783 -5 1740 -4 l1738 1 67 31 c118 55 204 165
230 296 31 150 -7 294 -133 506 -136 227 -136 500 0 673 l30 37 -28 1 c-209 9
-423 -38 -618 -138 -155 -79 -281 -175 -425 -323 -102 -105 -112 -116 -174
-202 -26 -37 -52 -70 -57 -73 -18 -12 -161 78 -238 149 -54 50 -115 142 -136
205 -36 110 -19 251 46 368 62 112 56 108 340 256 80 41 179 93 220 115 104
56 410 217 564 297 254 133 250 131 247 157 -6 48 -10 261 -5 274 4 10 13 8
36 -10 53 -41 132 -66 210 -68 40 -1 77 1 83 4 6 4 24 26 40 50 16 23 60 85
97 138 38 52 75 104 83 115 8 11 32 44 54 74 22 30 40 57 40 60 0 3 -24 6 -53
6 -162 0 -350 60 -467 151 -109 83 -170 162 -84 107 36 -23 86 -34 154 -34 75
1 91 3 220 38 190 51 353 31 391 -48 l15 -32 39 54 c83 115 84 116 76 147 -31
107 -105 162 -220 162 -24 0 -103 -14 -175 -31 -72 -17 -140 -33 -151 -35 -44
-10 -183 -12 -230 -3 -127 24 -237 109 -300 234 -36 71 -48 121 -84 340 -63
377 -250 725 -549 1018 -153 151 -296 263 -451 356 -50 30 -91 57 -91 61 0 3
22 4 49 0 72 -9 191 -2 237 13 40 14 45 31 9 33 -17 1 -99 15 -115 19 -3 1
-18 5 -35 10 -71 19 -138 58 -255 150 -147 116 -229 170 -345 230 -206 106
-444 177 -675 201 -63 6 -347 13 -352 9z"/>
</g>
</svg>
